<svg xmlns="http://www.w3.org/2000/svg" viewBox="0 0 398.63 131.83"><title>Salford Open Journals</title><path d="M222.81 63.13V39.96c0-2.55-.31-4.71-.93-6.64-.62-1.93-1.62-3.55-3.01-4.87-1.39-1.31-3.24-2.24-5.48-2.93s-5.02-1-8.34-1c-3.09 0-5.72.39-7.88 1.08-2.16.69-3.94 1.62-5.25 2.78-1.31 1.16-2.32 2.47-2.93 3.94-.62 1.47-.93 3.01-.93 4.56l.77.77h10.81l.77-.77c.23-.54.46-1 .85-1.31.39-.31.77-.54 1.24-.7.39-.15.85-.23 1.31-.31h1.24c1.54 0 2.7.23 3.47.77s1.16 1.54 1.16 3.09v.77l-.77.77c-.54-.08-1.08-.23-1.78-.38-.54-.08-1.24-.23-2.08-.31-.85-.08-1.93-.08-3.09-.08-1.55 0-3.24.15-5.1.39-1.93.31-3.71.93-5.33 1.85-1.62.93-3.01 2.24-4.09 3.94-1.16 1.78-1.7 4.09-1.7 6.95 0 3.86 1.24 6.87 3.78 9.03 2.47 2.24 5.87 3.32 10.12 3.32 1.55 0 2.93-.15 4.09-.46 1.16-.31 2.09-.69 2.86-1.08.93-.46 1.7-1 2.32-1.54h.77l.77 1.54.77.77h10.81l.77-.77ZM209.68 50c0 1.54-.62 2.7-1.93 3.47s-2.7 1.16-4.25 1.16c-1.16 0-2.24-.23-3.17-.7-1-.39-1.47-1.24-1.47-2.39s.39-2.16 1.24-2.86c.85-.69 2.24-1 4.17-1 .77 0 1.47 0 2.01.08.54.08 1.08.23 1.47.31.46.15.85.31 1.16.39l.77.77V50Zm-67.33 10.12c4.09 3.01 9.96 4.56 17.76 4.56 4.25 0 7.8-.46 10.81-1.47 2.93-1 5.33-2.24 7.18-3.86 1.78-1.62 3.09-3.4 3.94-5.48.85-2.01 1.24-4.09 1.24-6.18s-.23-4.09-.7-6.02c-.54-1.93-1.47-3.63-2.86-5.17s-3.32-2.86-5.87-4.02c-2.55-1.16-5.79-2.01-9.88-2.55l-5.4-.77c-2.7-.39-4.79-.93-6.26-1.47-1.47-.54-2.24-1.62-2.24-3.17 0-3.09 3.09-4.63 9.27-4.63 3.09 0 5.25.54 6.56 1.54 1.31 1 1.93 2.32 1.93 3.86l.77.77h12.35l.77-.77c0-5.41-2.01-9.5-5.95-12.2-4.02-2.7-9.5-4.02-16.45-4.02-3.86 0-7.18.39-9.96 1.23-2.86.85-5.17 1.93-7.03 3.32-1.85 1.39-3.24 3.01-4.09 4.86-.85 1.93-1.31 3.94-1.31 6.02 0 1.93.23 3.86.77 5.71.46 1.85 1.39 3.55 2.78 5.17s3.32 3.01 5.87 4.17c2.55 1.23 5.79 2.16 9.88 2.7l5.41.77c1.31.23 2.55.39 3.63.62 1 .23 1.93.54 2.63.93.69.39 1.31.93 1.7 1.47.39.62.54 1.39.54 2.39 0 1.93-.93 3.32-2.7 4.17-1.78.85-4.25 1.24-7.34 1.24-3.47 0-6.02-.62-7.64-1.78-1.62-1.16-2.39-2.86-2.39-5.17l-.77-.77h-12.36l-.77.77c0 5.79 2.09 10.19 6.18 13.2ZM255.87 36.1l.77.77v26.25l.77.77h11.58l.77-.77V36.87l.77-.77h7.72l.77-.77v-9.27l-.77-.77h-7.72l-.77-.77v-1.54c0-1.54.77-2.32 2.32-2.32h6.95l.77-.77v-9.27l-.77-.77h-9.27c-1.78 0-3.4.23-4.94.62-1.62.39-3.01 1.08-4.17 2.01-1.24.93-2.24 2.09-2.93 3.55-.69 1.47-1.08 3.32-1.08 5.41v3.09l-.77.77h-6.18l-.77.77v9.27l.77.77h6.18Zm63.47 16.84c.93-2.47 1.39-5.25 1.39-8.34s-.46-5.87-1.39-8.34c-.93-2.47-2.24-4.56-4.02-6.33-1.78-1.78-3.86-3.09-6.33-4.01-2.47-.93-5.25-1.39-8.34-1.39s-5.87.46-8.34 1.39c-2.47.93-4.56 2.24-6.33 4.01-1.78 1.78-3.09 3.86-4.02 6.33-.93 2.47-1.39 5.25-1.39 8.34s.46 5.87 1.39 8.34c.93 2.47 2.24 4.56 4.02 6.33 1.78 1.78 3.86 3.09 6.33 4.02 2.47.93 5.25 1.39 8.34 1.39s5.87-.46 8.34-1.39c2.47-.93 4.56-2.24 6.33-4.02 1.78-1.78 3.09-3.86 4.02-6.33ZM307.06 49c-.39 1.16-.85 2.16-1.47 2.86-.62.69-1.31 1.24-2.16 1.54-.85.31-1.78.46-2.78.46s-1.85-.15-2.7-.46c-.85-.31-1.62-.85-2.24-1.54-.62-.69-1.08-1.7-1.47-2.86-.39-1.16-.54-2.63-.54-4.4 0-3.48.7-5.87 2.01-7.26 1.31-1.31 3.01-2.01 4.94-2.01 1 0 1.93.15 2.78.46.85.31 1.54.85 2.16 1.55.62.69 1.08 1.7 1.47 2.86.39 1.16.54 2.63.54 4.4s-.15 3.24-.54 4.4Zm47.26-13.67v-9.27l-.77-.77h-5.41c-1.78 0-3.17.15-4.25.46-1.16.31-2.01.69-2.63 1.08-.69.46-1.24 1-1.62 1.54h-.77l-.77-2.32-.77-.77h-10.81l-.77.77v37.07l.77.77h11.58l.77-.77v-19.3c0-3.09.62-5.17 1.93-6.18 1.31-1 3.47-1.55 6.56-1.55h6.18l.77-.77Zm27.8 25.49h.77l.77 2.32.77.77h10.81l.77-.77V10.62l-.77-.77h-11.58l-.77.77v17.76h-.77c-.77-1.16-2.01-2.16-3.71-2.86-1.78-.69-3.63-1-5.56-1-2.55 0-4.79.46-6.87 1.39-2.09.93-3.94 2.24-5.41 4.01-1.47 1.78-2.63 3.86-3.47 6.33-.85 2.47-1.24 5.25-1.24 8.34s.39 5.87 1.24 8.34c.85 2.47 2.01 4.56 3.47 6.33 1.47 1.78 3.32 3.09 5.41 4.02 2.08.93 4.32 1.39 6.87 1.39 1.93 0 3.78-.31 5.56-1.08 1.7-.69 2.93-1.62 3.71-2.78Zm-3.4-7.42c-.85.31-1.78.46-2.78.46s-1.85-.15-2.7-.46c-.85-.31-1.62-.85-2.24-1.54-.62-.69-1.08-1.7-1.47-2.86-.39-1.16-.54-2.63-.54-4.4 0-3.48.7-5.87 2.01-7.26 1.31-1.31 3.01-2.01 4.94-2.01 1 0 1.93.15 2.78.46.85.31 1.54.85 2.16 1.55.62.69 1.08 1.7 1.47 2.86.39 1.16.54 2.63.54 4.4s-.15 3.24-.54 4.4c-.39 1.16-.85 2.16-1.47 2.86-.62.69-1.31 1.24-2.16 1.54ZM230.46 9.82l-.78.77-.25 52.51.77.78 11.58.05.78-.77.25-52.51-.77-.78-11.58-.05Zm164.75 89.04c-1-.94-2.58-1.64-4.75-2.08-2.31-.47-3.86-.9-4.65-1.29-.79-.39-1.19-1.07-1.19-2.04 0-1.39 1.25-2.08 3.75-2.08s3.75.83 3.75 2.5l.42.42h3.33l.42-.42c0-2.03-.72-3.58-2.17-4.65s-3.36-1.61-5.75-1.61c-2.72 0-4.72.56-6 1.69-1.28 1.13-1.92 2.51-1.92 4.15 0 1.81.56 3.19 1.69 4.15 1.13.96 2.79 1.66 4.98 2.11 2.22.44 3.68.86 4.38 1.25.69.39 1.04 1.08 1.04 2.08 0 1.67-1.39 2.5-4.17 2.5s-4.17-1.11-4.17-3.33l-.42-.42h-3.33l-.42.42c0 2.31.71 4.06 2.15 5.27 1.43 1.21 3.49 1.81 6.19 1.81s4.83-.59 6.23-1.77 2.11-2.67 2.11-4.48-.5-3.22-1.5-4.17ZM151.59 79.27c-4.28 0-7.64 1.38-10.09 4.15-2.45 2.77-3.67 6.39-3.67 10.86s1.22 8.09 3.67 10.86c2.45 2.77 5.81 4.15 10.09 4.15s7.64-1.38 10.09-4.15c2.45-2.76 3.67-6.38 3.67-10.86s-1.22-8.09-3.67-10.86c-2.45-2.76-5.81-4.15-10.09-4.15Zm7.09 23.19c-1.67 2.04-4.03 3.06-7.09 3.06s-5.42-1.02-7.09-3.06-2.5-4.77-2.5-8.19.83-6.15 2.5-8.19 4.03-3.06 7.09-3.06 5.42 1.02 7.09 3.06 2.5 4.77 2.5 8.19-.83 6.15-2.5 8.19Zm42.1-14.86c-3.17 0-5.56 1.02-7.17 3.06-1.61 2.04-2.42 4.63-2.42 7.77s.86 5.87 2.58 7.86c1.72 1.99 4.2 2.98 7.42 2.98 2.39 0 4.32-.6 5.79-1.79 1.47-1.19 2.32-2.68 2.54-4.46l-.42-.42h-3.33l-.42.42c-.67 1.67-2.06 2.5-4.17 2.5-.94 0-1.77-.15-2.48-.46-.71-.3-1.24-.66-1.6-1.06-.36-.4-.65-.86-.85-1.38-.21-.51-.34-.93-.4-1.25s-.08-.6-.08-.86l.42-.42h13.76l.42-.42v-1.25c0-3.14-.81-5.73-2.42-7.77-1.61-2.04-4-3.06-7.17-3.06Zm4.59 9.18h-9.17l-.42-.42c0-.44.06-.9.17-1.36.11-.46.31-.99.6-1.58.29-.6.81-1.09 1.54-1.48.74-.39 1.63-.58 2.69-.58s1.95.2 2.69.58c.74.39 1.25.88 1.54 1.48.29.6.49 1.13.6 1.58.11.46.17.91.17 1.36l-.42.42Zm-25.85-9.18c-.7 0-1.36.09-2 .27-.64.18-1.15.38-1.52.6-.38.22-.73.47-1.06.75-.33.28-.54.48-.62.6-.08.12-.15.22-.21.27h-.42l-.42-1.67-.42-.42h-2.92l-.42.42v28.35l.42.42h3.33l.42-.42v-10h.42l.5.62c.36.42.99.83 1.9 1.25.9.42 1.91.62 3.02.62 2.86 0 5.11-1.01 6.73-3.02 1.63-2.01 2.44-4.62 2.44-7.82s-.81-5.8-2.44-7.82c-1.63-2.01-3.87-3.02-6.73-3.02Zm3.57 16.1c-.96 1.22-2.29 1.83-3.98 1.83-3.61 0-5.42-2.36-5.42-7.09s1.81-7.09 5.42-7.09c1.69 0 3.02.61 3.98 1.83.96 1.22 1.44 2.97 1.44 5.25s-.48 4.03-1.44 5.25Zm94.4-16.1c-3.11 0-5.56.97-7.34 2.92-1.78 1.95-2.67 4.59-2.67 7.92s.89 5.98 2.67 7.92c1.78 1.95 4.22 2.92 7.34 2.92s5.56-.97 7.34-2.92c1.78-1.95 2.67-4.59 2.67-7.92s-.89-5.97-2.67-7.92c-1.78-1.94-4.22-2.92-7.34-2.92Zm4.33 16.1c-1 1.22-2.45 1.83-4.33 1.83s-3.33-.61-4.34-1.83c-1-1.22-1.5-2.97-1.5-5.25s.5-4.03 1.5-5.25c1-1.22 2.45-1.83 4.34-1.83s3.33.61 4.33 1.83c1 1.22 1.5 2.97 1.5 5.25s-.5 4.03-1.5 5.25Zm41.52-15.68c-1.36 0-2.42.17-3.19.5-.76.33-1.51.86-2.23 1.58h-.42l-.42-1.67-.42-.42h-2.92l-.42.42v20.01l.42.42h3.33l.42-.42V98.02c0-2.36.45-4 1.35-4.9.9-.9 2.26-1.35 4.06-1.35h2.08l.42-.42v-2.92l-.42-.42h-1.67Zm-18.76 0-.42.42v10c0 2.39-.45 4.17-1.35 5.34s-2.12 1.75-3.65 1.75c-2.78 0-4.17-1.67-4.17-5V88.44l-.42-.42h-3.33l-.42.42v12.09c0 2.53.64 4.62 1.92 6.27s3.28 2.48 6 2.48c.61 0 1.21-.09 1.79-.27.58-.18 1.06-.38 1.42-.6.36-.22.69-.47 1-.75.3-.28.5-.48.58-.6.08-.12.15-.21.21-.27h.42l.42 1.67.42.42h2.92l.42-.42V88.45l-.42-.42h-3.33Zm34.19-.42c-.69 0-1.36.09-2 .27s-1.15.38-1.52.6-.73.47-1.06.75c-.33.28-.54.48-.63.6-.08.12-.15.22-.21.27h-.42l-.42-1.67-.42-.42h-2.92l-.42.42v20.01l.42.42h3.33l.42-.42v-10c0-2.5.43-4.31 1.29-5.42s2.24-1.67 4.13-1.67c2.78 0 4.17 1.67 4.17 5v12.09l.42.42h3.33l.42-.42V96.34c0-2.7-.62-4.83-1.88-6.4-1.25-1.57-3.27-2.36-6.04-2.36Zm20.42 0c-2.86 0-4.97.62-6.32 1.86-1.35 1.24-2.02 2.7-2.02 4.4l.42.42h3.33l.42-.42c0-1.67 1.39-2.5 4.17-2.5 1.5 0 2.57.27 3.21.81.64.54.96 1.52.96 2.94v.83l-.42.42-.5-.08c-.31-.08-.77-.16-1.4-.23-.63-.07-1.24-.1-1.86-.1-2.83 0-5.07.56-6.71 1.67-1.64 1.11-2.46 2.78-2.46 5s.61 3.75 1.83 4.92c1.22 1.17 2.97 1.75 5.25 1.75.78 0 1.51-.09 2.21-.27.69-.18 1.24-.38 1.65-.6.4-.22.78-.47 1.13-.75.35-.28.56-.48.65-.6.08-.12.15-.21.21-.27h.42l.42 1.67.42.42h2.92l.42-.42V96.8c0-3.22-.63-5.56-1.88-7-1.25-1.44-3.41-2.17-6.46-2.17Zm4.17 13.76c0 1.25-.49 2.26-1.46 3.02-.97.76-2.29 1.15-3.96 1.15-2.5 0-3.75-.97-3.75-2.92 0-2.22 1.81-3.33 5.42-3.33 1.39 0 2.5.14 3.33.42l.42.42v1.25ZM259.15 79.68l-.42.42v20.84c0 1.61-.39 2.78-1.17 3.5-.78.72-1.92 1.08-3.42 1.08-2.78 0-4.17-1.39-4.17-4.17v-.83l-.42-.42h-3.33l-.42.42v.83c0 .67.05 1.32.17 1.96.11.64.35 1.33.73 2.08s.85 1.4 1.44 1.94c.58.54 1.39 1 2.42 1.38 1.03.38 2.22.56 3.58.56 2.97 0 5.18-.77 6.61-2.31 1.43-1.54 2.15-3.55 2.15-6.02V80.1l-.42-.42h-3.33Zm-35.02 7.92c-.69 0-1.36.09-2 .27s-1.15.38-1.52.6-.73.47-1.06.75c-.33.28-.54.48-.63.6-.08.12-.15.22-.21.27h-.42l-.42-1.67-.42-.42h-2.92l-.42.42v20.01l.42.42h3.33l.42-.42v-10c0-2.5.43-4.31 1.29-5.42s2.24-1.67 4.13-1.67c2.78 0 4.17 1.67 4.17 5v12.09l.42.42h3.33l.42-.42V96.34c0-2.7-.62-4.83-1.88-6.4-1.25-1.57-3.27-2.36-6.04-2.36Zm148.4-7.92-.42.42v28.35l.42.42h3.33l.42-.42V80.1l-.42-.42h-3.33ZM55.39 2.62C62.7 5.54 67.57 10 69.48 16.35h27.5v69.91c0 2.77-.54 4.84-1.61 6.23-1.08 1.38-33.92 20.81-36.68 20.81s-35.8-19.19-36.88-20.57c-1.07-1.38-1.61-3.46-1.61-6.23v-4.98C12.52 80.54 6.79 75.41 3.6 70v16.5c0 2.52.38 5.1 1.15 7.75.77 2.64 2.08 5.03 3.92 7.15 4.44 5.1 47.81 28.04 50.02 28.04.11 0 45.32-24.1 48.44-26.95 2.09-1.91 3.69-4.23 4.8-6.96 1.11-2.74 1.66-5.83 1.66-9.27V3.56l-.87-.94H55.39ZM12.3 74.96c5.11 3.76 12.25 5.87 21.41 6.31 1.22.06 2.48.09 3.78.09l-.03-.04c6.3-.04 11.95-.72 17.17-2.7 1.17-.44 2.31-.95 3.44-1.53l.57-.3c1.63-.89 3.08-1.88 4.33-2.98 2.59-2.26 4.47-4.84 5.64-7.72s1.75-5.82 1.75-8.81-.2-5.46-.89-8.16c-.16-.61-.34-1.2-.57-1.78-8.18-2.13-15.85.53-17.6 8.48.26.73.35 1.26.44 2.56.03.38-.02.74-.07 1.09-.09.66-.26 1.26-.52 1.81-.09.2-.19.38-.31.57.18 7.11 2.21 12.13 6.36 14.76-4.15-2.63-6.18-7.64-6.36-14.76 0 .01-.02.03-.03.04-.54.85-1.31 1.55-2.32 2.11-.03.02-.06.04-.09.05-3.81 2.19-10.36 2.67-15.65 1.74v-.06c-1.21-.18-2.3-.43-3.26-.75-1.1-.37-2.03-.84-2.81-1.4-2.26-1.64-3.39-4.11-3.39-7.39l-1.1-1.09H4.69l-1.1 1.09c0 8.25 2.9 14.51 8.7 18.78ZM9.73 39.88c1.97 2.26 4.74 4.25 8.32 5.97 3.47 1.66 7.97 2.9 13.51 3.71 2.88-8.3 7.11-14.19 14.54-16.96-.99-.18-2.02-.34-3.09-.49l-7.66-1.09c-3.87-.58-6.84-1.28-8.92-2.08s-3.12-2.3-3.12-4.49c0-4.38 4.38-6.57 13.14-6.57 4.38 0 7.48.73 9.31 2.19 1.82 1.46 2.74 3.28 2.74 5.47l1.09 1.1h17.52l1.1-1.1c0-7.66-2.83-13.41-8.48-17.24-5.66-3.83-13.41-5.75-23.26-5.75-5.47 0-10.2.58-14.18 1.75-3.98 1.17-7.28 2.74-9.91 4.71-2.63 1.97-4.56 4.29-5.8 6.95s-1.86 5.49-1.86 8.48c0 2.77.35 5.47 1.04 8.1.69 2.63 2.03 5.07 4 7.34Zm53.53 41.08c-1.94 0-3.7-.24-5.27-.73-5.64 2.67-11.74 3.62-18.63 3.74.54.66 1.1 1.29 1.7 1.88 2.68 2.68 5.9 4.72 9.66 6.12 3.76 1.4 7.94 2.1 12.54 2.1s8.78-.7 12.54-2.1c3.76-1.4 6.98-3.44 9.66-6.12 2.68-2.68 4.75-5.97 6.21-9.88 1.46-3.9 2.19-8.36 2.19-13.37s-.73-9.47-2.19-13.37c-1.46-3.9-3.53-7.2-6.21-9.88-2.68-2.68-5.9-4.72-9.66-6.12-3.76-1.4-7.94-2.1-12.54-2.1-2.96 0-5.75.29-8.37.87-1.45.32-2.84.73-4.18 1.23-.18.07-.37.14-.55.21-3.52 1.39-6.56 3.36-9.11 5.91-2.68 2.68-4.75 5.97-6.21 9.88l-.27.75c-.28.82-.53 1.67-.75 2.54-.77 3.07-1.16 6.43-1.16 10.08v.4c5.32.95 11.92.48 15.75-1.72.06-1.95.26-3.74.59-5.35.17-.81.37-1.58.61-2.31.62-1.91 1.48-3.52 2.58-4.83 2.53-3.03 6.22-4.55 11.06-4.55 1.63 0 3.12.17 4.49.51 1.47.37 2.79.93 3.96 1.7.98.64 1.85 1.42 2.61 2.33 2.53 3.03 3.8 7.63 3.8 13.81s-1.27 10.78-3.8 13.81c-2.54 3.03-6.22 4.55-11.06 4.55Z" style="fill:#fff;fill-rule:evenodd"/></svg>