<svg xmlns="http://www.w3.org/2000/svg" fill="none" viewBox="0 0 217 103"><title>University of Salford</title><path fill="#fff" d="M110.38 88.04v-9.08c0-1.01.04-1.64.09-2.59h-.04c-.32.77-.66 1.43-1 2.14l-2.67 5.68h-1.45l-2.64-5.68c-.32-.71-.66-1.43-1-2.14h-.04c.04.96.08 1.56.08 2.59v9.08H100V74.08h2.27l2.89 6.3c.28.6.56 1.28.83 1.88h.04c.26-.62.58-1.3.86-1.92l2.93-6.26h2.26v13.96h-1.71.01ZM120.45 77.82c-.24-.75-.41-1.47-.56-2.29h-.19c-.17.83-.32 1.54-.56 2.29l-1.33 4.08h3.97l-1.32-4.08h-.01Zm3.29 10.22-1.45-4.57h-5l-1.48 4.57h-1.75l4.57-13.96h2.39l4.57 13.96h-1.85ZM134.89 88.04l-4.92-10.02c-.34-.7-.77-1.54-1.13-2.37h-.04c.06.92.09 1.94.09 2.91v9.47h-1.62V74.07h2.48l4.87 9.76c.34.68.79 1.63 1.13 2.39h.04c-.08-1.11-.09-2.2-.09-3.06v-9.08h1.65v13.96h-2.46ZM145.34 88.31c-3.2 0-5.64-1.18-5.64-6.09v-2.31c0-4.91 2.44-6.05 5.64-6.05 1.28 0 2.67.23 3.23.32v1.41c-.86-.08-2.2-.19-3.23-.19-2.63 0-3.91 1.07-3.91 4.51v2.31c0 3.44 1.28 4.53 3.91 4.53 1.03 0 2.37-.1 3.23-.17v1.41c-.56.09-1.95.32-3.23.32ZM159.36 88.04v-6.6h-6.99v6.6h-1.73V74.08h1.73v5.81h6.99v-5.81h1.73v13.96h-1.73ZM163.91 88.04V74.08h8.27v1.54h-6.54v4.4h6.14v1.56h-6.14v4.94h6.54v1.52h-8.27ZM189.58 75.62v12.42h-1.73V75.62h-4.3v-1.54h10.34v1.54h-4.31ZM195.48 88.04V74.08h8.27v1.54h-6.54v4.4h6.15v1.56h-6.15v4.94h6.54v1.52h-8.27ZM209.39 75.62h-1.56v5.47h1.62c2.73 0 4.02-.54 4.02-2.74 0-2.33-1.37-2.73-4.08-2.73Zm4.66 12.43-3.29-5.45c-.38.02-.9.02-1.32.02h-1.62v5.43h-1.73V74.09h3.29c3.23 0 5.83.68 5.83 4.27 0 2.24-1 3.33-2.61 3.89l3.5 5.81h-2.05v-.01ZM180.09 80.62l-2.41-1.05c-1.49-.66-1.88-1.26-1.88-2.33 0-1.45 1.03-1.88 2.88-1.88 1.09 0 2.35.1 3.23.19v-1.42c-.76-.13-2.03-.26-3.29-.26-3.06 0-4.57 1.09-4.57 3.38 0 1.94 1.02 2.95 2.88 3.78l2.39 1.07c1.49.68 1.9 1.32 1.9 2.42 0 1.64-.96 2.29-2.86 2.29-1.58 0-2.88-.11-3.98-.24v1.35c.51.13 2.29.39 3.98.39 3.08 0 4.62-1.37 4.62-3.8 0-1.96-.94-3.03-2.89-3.89ZM107.44 67.68c-2.4 0-4.92-.53-7.13-1.69-.19-.1-.28-.16-.28-.39l-.04-3.06c0-.19.12-.48.35-.39 3 1.27 3.97 1.53 5.98 1.62 2.79.12 5.81-.62 5.81-3.48 0-5.65-12.18-4.34-12.18-12.89 0-5.96 5.63-7.01 10.36-7.01 2.33 0 5.08.78 6.31 1.34.17.08.25.15.25.31v.08l-.42 2.98c-.07.15-.14.23-.28.23-.04 0-.04.01-.07 0-1.98-.66-3.42-1.04-4.92-1.11-2.71-.13-5.36.43-5.36 2.91 0 4.45 12.21 3.91 12.21 12.16 0 6.5-4.91 8.4-10.61 8.4l.02-.01ZM132.96 56.76c0-.23-.07-.31-.35-.31h-2.64c-2.75 0-4.21.73-4.21 3.41 0 2.86 1.5 3.75 4.21 3.75h2.61c.31 0 .38-.11.38-.39v-6.47.01Zm5.71 9.49c0 .27-.07.46-.42.54-2.64.35-5.92.85-8.91.85-5.5 0-9.43-1.67-9.43-7.59s3.83-7.2 8.24-7.2c1.36 0 3.62.27 4.73.42 0-3.48-1.22-4.88-5.22-4.88-1.32 0-3.13.16-4.63.27h-.1c-.25 0-.31-.12-.38-.35l-.31-2.79v-.08c0-.15.1-.23.28-.31 1.81-.23 4.84-.46 7.06-.46 5.53 0 9.08 2.21 9.08 8.4v13.17l.01.01ZM147.41 67.17h-5.11c-.25 0-.32-.12-.32-.38V37.83c0-.23.07-.34.32-.42l5.08-.39c.24 0 .38.12.38.39V66.8c0 .27-.07.38-.35.38v-.01ZM172.43 48.2c-3.3 0-4.49 2.17-4.49 8.09 0 5.61 1.29 7.7 4.49 7.7s4.45-2.17 4.45-7.7c0-5.96-1.18-8.09-4.45-8.09Zm0 19.4c-6.47 0-10.3-3.79-10.3-11.27 0-8.13 4.07-11.62 10.3-11.62s10.26 3.41 10.26 11.62c0 7.43-3.79 11.27-10.26 11.27ZM209.18 48.67c-.94-.08-1.77-.16-2.81-.16-3.27 0-5.05 2.25-5.05 7.55s1.95 7.55 5.39 7.55c.8 0 1.81-.11 2.47-.23.21-.08.28-.23.28-.43V49.09c0-.23-.11-.39-.28-.43v.01Zm5.6 18.08c-2.47.43-5.01.89-8.07.89-6.58 0-11.31-3.02-11.31-11.89 0-8.87 4.42-11.11 9.36-11.11 1.43 0 3.69.31 4.45.39h.07c.14 0 .24-.12.24-.31v-6.77c0-.27.14-.43.38-.51l4.91-.38c.28.04.42.27.42.5v28.57c0 .31-.14.58-.45.62ZM195.05 48.47c-1.49.04-2.61.15-4.17.27-.21 0-.31.16-.31.35v17.65c0 .31-.1.43-.35.43h-5.08c-.21 0-.35-.12-.35-.38V46.27c0-.27.1-.42.35-.5 2.37-.35 7.2-.77 9.98-.89.21 0 .32.16.32.39v2.86c0 .19-.14.35-.39.35v-.01ZM163.14 33.05c-1.19 0-2.44-.26-3.54-.84-.09-.05-.14-.08-.14-.19l-.02-1.52c0-.1.06-.24.17-.19 1.49.63 1.97.75 2.97.8 1.24.06 3.49-.12 3.49-1.73 0-3.18-6.65-2.15-6.65-6.39 0-2.96 2.8-3.48 5.14-3.48 1.16 0 2.28.26 2.89.53.08.04.12.08.12.15v.04l-.21 1.48c-.03.08-.07.11-.14.11.02 0-.02 0 0 0-1-.3-1.4-.4-2.21-.46-1.46-.11-3.44.05-3.46 1.48-.04 2.49 6.65 1.94 6.65 6.03 0 3.23-2.25 4.17-5.08 4.17l.02.01ZM111.12 27.13c0 3.89-2.23 5.93-5.56 5.93-3.33 0-5.56-2.06-5.56-5.88v-9.8c0-.16.08-.26.21-.26H102c.12 0 .19.09.19.26v9.54c0 2.94 1.08 4.08 3.41 4.08 2.16 0 3.31-1.16 3.31-4.05v-9.57c0-.16.06-.26.21-.26h1.79c.15 0 .23.07.23.23l-.02 9.77v.01ZM123.45 32.88h-1.81c-.15 0-.19-.04-.19-.23v-7.9c0-2.55-1.14-3.27-3.39-3.27-.71 0-1.75.09-2.41.16-.16 0-.19.05-.19.23v10.77c0 .19-.06.23-.21.23h-1.81c-.14 0-.21-.04-.21-.23V20.36c0-.18.04-.23.23-.28 1.67-.28 3.54-.53 4.68-.53 3.41 0 5.49 1.11 5.49 5.03v8.06c0 .16-.04.23-.19.23l.01.01ZM127.95 32.88h-1.81c-.13 0-.19-.07-.19-.23V19.89c0-.14.06-.23.21-.23h1.77c.17 0 .21.07.21.21v12.79c0 .16-.04.23-.18.23l-.01-.01Zm.18-15.09c0 .16-.04.23-.18.23h-1.81c-.11 0-.19-.07-.19-.26v-1.9c0-.16.06-.23.19-.23h1.81c.14 0 .18.07.18.23v1.93ZM140.04 19.65h-1.79c-.13 0-.17.04-.21.16l-2.9 10.98c-.03.1-.08.14-.14.15-.06-.01-.11-.05-.13-.13l-2.8-10.98c-.04-.14-.06-.18-.21-.18h-1.96c-.14 0-.21.04-.21.11 0 .03.01.03.02.07l3.79 12.81c.04.16.08.23.23.23h2.41c.17 0 .25-.07.29-.25l3.75-12.76s.02-.07.02-.09c0-.07-.06-.11-.16-.11v-.01ZM146.01 21.41c-2.04 0-3.35 1.25-3.35 3.82 0 .19.04.23.19.23h6.45c.15 0 .23-.02.23-.21-.06-2.6-1.44-3.85-3.52-3.85v.01Zm5.56 5.88h-8.7c-.13 0-.19.02-.19.23.08 2.92 1.85 3.57 4.41 3.57.96 0 2.02-.09 3.14-.19.08 0 .19.02.19.16v.05l-.19 1.41c-.04.16-.1.16-.25.21-1.02.16-2.27.3-3.6.3-3.56 0-5.95-1.64-5.95-6.81s2.58-6.67 5.7-6.67c3.81 0 5.62 2.36 5.62 7.5 0 .16-.06.23-.19.23l.01.01ZM172.09 32.88h-1.81c-.13 0-.19-.07-.19-.23V19.89c0-.14.06-.23.21-.23h1.77c.17 0 .21.07.21.21v12.79c0 .16-.04.23-.19.23v-.01Zm.19-15.09c0 .16-.04.23-.19.23h-1.81c-.11 0-.19-.07-.19-.26v-1.9c0-.16.06-.23.19-.23h1.81c.15 0 .19.07.19.23v1.93ZM181.11 32.58c-.05.14-.11.18-.25.21-.9.12-1.42.21-2.15.21-1.97 0-2.85-.98-2.85-3.31v-8.22c0-.16-.06-.23-.21-.23h-1.41c-.15 0-.21-.09-.21-.25v-1.11c0-.14.06-.21.21-.21h1.43c.12 0 .19-.07.19-.24V16.4c0-.16.04-.23.21-.28l1.77-.21c.14 0 .23.07.23.23v3.29c0 .16.04.24.21.24h2.24c.17 0 .21.07.21.23v1.11c0 .14-.04.21-.21.21h-2.24c-.15 0-.21.09-.21.26v7.6c0 1.34.19 1.9 1.75 1.9h1.27c.19 0 .21.09.21.23l-.18 1.39-.01-.02ZM158.22 21.49c-.92 0-1.6.07-2.5.14-.17.02-.23.09-.23.23v10.79c0 .16-.04.23-.19.23h-1.81c-.1 0-.18-.07-.18-.23V20.38c0-.16.06-.26.21-.3 1.41-.21 3.04-.47 4.72-.53.13 0 .19.09.19.23v1.53c0 .11-.06.18-.21.18ZM193.01 19.65h-1.85c-.11 0-.19.07-.21.16l-2.75 10.98c-.03.11-.07.15-.13.16-.07-.01-.14-.06-.17-.18l-3.12-10.95c-.04-.14-.1-.16-.23-.16h-1.94c-.1 0-.19.03-.19.13v.06l3.6 12.24c.22.64.81.79.99.8h.05c.13 0 .16.09.16.21 0 0-.01.17-.15.51-.45 1.23-1.82 2.9-2.34 3.45-.02.05-.04.09-.04.12 0 .09.08.16.16.16h1.96c.12 0 .23-.07.29-.16 1.69-1.85 2.81-4.89 3.41-7.18l2.62-10.14v-.02c0-.09-.06-.16-.15-.16l.03-.03ZM161.05 36.29c-1.02 0-7.38.78-8.07 8.35-.03.31-.17.43-.42.43h-2.4c-.24 0-.31.12-.31.39v2.67c0 .27.07.39.35.39l2.23-.04c.28 0 .35.19.35.46v17.77c0 .31.14.46.38.46h5.04c.24 0 .35-.16.35-.46V48.94c0-.31.11-.43.35-.43h2.82c.24 0 .35-.15.35-.39v-2.67c0-.23-.11-.39-.38-.39h-2.89c-.32 0-.35-.12-.35-.43.31-2.58 1.86-4.52 3.9-5.38 0 0 .04-.02.1-.06.02-.01.04-.02.05-.03a.12.12 0 0 0 .05-.05s.02-.02.02-.03c0-.01.01-.03.02-.04v-.01c.02-.06 0-.14-.04-.25 0 0-.01-.03-.04-.08l-1.05-2.11c-.15-.18-.29-.3-.43-.3h.02ZM202.37 21.35c-2.07 0-3.77 1.24-3.77 5.05 0 3.32 1.55 4.73 3.81 4.73s3.84-1.45 3.84-4.73c0-3.83-1.74-5.05-3.88-5.05Zm0 11.73c-3.08 0-5.99-2.17-5.99-6.69 0-4.52 2.6-6.87 6.01-6.87 3.41 0 6.03 2.12 6.03 6.87 0 4.47-2.81 6.69-6.06 6.69h.01ZM214.7 15.19c-.59 0-3.82.87-4.12 4.21-.02.18-.1.25-.25.25h-1.42c-.14 0-.19.07-.19.24V21c0 .16.04.23.21.23h1.32c.17 0 .21.12.21.28v11.1c0 .18.08.28.23.28h1.79c.14 0 .21-.09.21-.28V21.47c0-.18.06-.25.21-.25h2.14c.14 0 .21-.09.21-.23V19.9c0-.14-.06-.24-.23-.24h-2.13c-.19 0-.19-.06-.19-.25.25-1.52 1.33-2.58 2.58-3.07.04-.02.1-.08.03-.2l-.43-.85c-.05-.08-.11-.08-.17-.08l-.01-.02ZM82.11 0h-2v103h2V0Z"/><path fill="#fff" fill-rule="evenodd" d="M31.124 82.076a5.75 5.75 0 0 0 0 0M35.678 73.383a2.077 2.077 0 0 0-.727-.227 2.934 2.934 0 0 0-.727.026c-.473.079-.913.227-1.332.379-.84.304-1.657.629-2.477.627-.823.002-1.637-.323-2.476-.627-.423-.152-.86-.3-1.334-.38-.466-.078-1.01-.043-1.452.204a1.904 1.904 0 0 0-.92 1.144c-.135.469-.08.996.168 1.42.525.772 1.227 1.36 2.006 1.801l-.014-.01.014.009c.265.179.556.379.862.623l.002.001s-.664-.633-1.041-1.179c-.38-.546-.746-1.928.52-1.622 1.264.31 1.468.79 3.666.79s2.403-.48 3.667-.788c1.264-.308.9 1.074.521 1.62-.377.546-1.041 1.178-1.041 1.178h.003c.306-.243.596-.443.861-.623l.002-.002c.777-.44 1.477-1.024 2.006-1.802.51-.847.166-2.089-.758-2.562" clip-rule="evenodd"/><path fill="#fff" fill-rule="evenodd" d="M30.415 82.028c.182 0 .36.02.541.036-.01-.516-.014-1.036-.053-1.555-.06-.812-.15-1.625-.33-2.439a17.264 17.264 0 0 0-.369 2.435c-.045.512-.054 1.024-.072 1.537l.283-.014M42.494 70.928c-1.182 2.07-2.474 4.064-3.81 6.022-.19.17-.368.36-.522.577a7.905 7.905 0 0 0-.764 1.283c-.194.274-.384.55-.578.824a171.707 171.707 0 0 1-2.313 3.13l-.317-.145-.301-.329a182.158 182.158 0 0 1 2.2-3.179l.15-.204a7.946 7.946 0 0 0 1.56-1.64c.284-.387.48-.817.592-1.269 1.31-1.731 2.66-3.433 4.1-5.07a210.865 210.865 0 0 0-4.848 3.287c.04.137.084.272.106.411a2.964 2.964 0 0 1-.53 2.218c-.76 1.049-1.416 1.51-2.053 1.958-.59.42-1.201.85-1.823 1.708a1.928 1.928 0 0 0 .095 2.38c.25.152.487.328.71.516.817.35 1.772.106 2.308-.634.625-.86.846-1.573 1.06-2.265.23-.742.467-1.51 1.226-2.555a2.969 2.969 0 0 1 2.07-1.21 227.91 227.91 0 0 0 1.682-5.811v-.003ZM24.956 83.301c.53.31 1.165.335 1.716.102.225-.193.47-.364.724-.519a1.93 1.93 0 0 0 .094-2.374c-.624-.856-1.237-1.29-1.823-1.708-.639-.448-1.295-.91-2.053-1.96a2.967 2.967 0 0 1-.533-2.216c.022-.14.066-.277.107-.412a206.015 206.015 0 0 0-4.849-3.285l-.003-.003c1.445 1.637 2.797 3.341 4.105 5.075.114.447.31.88.59 1.266a8.032 8.032 0 0 0 1.553 1.632l.156.213a174.535 174.535 0 0 1 2.201 3.178l-.303.329-.318.142a169.176 169.176 0 0 1-2.31-3.127c-.193-.27-.38-.542-.572-.817a8.17 8.17 0 0 0-.768-1.291 3.917 3.917 0 0 0-.526-.58c-1.337-1.959-2.625-3.952-3.808-6.02h.002-.002c.528 1.95 1.102 3.885 1.684 5.818.403.045.8.171 1.164.386.355.207.661.482.902.82.761 1.046 1 1.815 1.23 2.556.215.693.433 1.407 1.058 2.266.156.217.351.396.582.53" clip-rule="evenodd"/><path fill="#fff" fill-rule="evenodd" d="m56.632 31.14-2.842 6.134a55.267 55.267 0 0 0-13.63-4.276l1.175-6.66a62.978 62.978 0 0 0-10.919-.953h-.009c-1.685 0-3.389.068-5.066.203l.545 6.741a55.436 55.436 0 0 0-13.971 2.962L9.67 28.916a61.988 61.988 0 0 0-8.766 3.877v6.906c0 1.28.056 2.52.14 3.742l5.027-3.043a2.36 2.36 0 0 1 1.228-.335c.721 0 1.425.313 1.987.832l-1.64.62-.346-.055a.98.98 0 0 0-.507.134l-5.622 3.4c.115 1.221.26 2.425.453 3.592l6.88-4.162.279-.294 1.608-.608-.032.39c-.134.74-.538 1.345-1.133 1.706l-7.069 4.276-.262.112c1.645 8.486 5.181 15.43 9.234 20.943.584.18 1.17.356 1.757.524l-.026.04.032-.034-.006-.006-9.82-19.166 16.021 14.39c-.955-3.402-1.772-6.853-1.546-10.658-.006-3.726 1.03-7.81-1.57-10.651 3.835 2.424 4.035 6.084 5.275 9.39 1.01 3.383 3.062 6.413 5.255 9.395l-.027.01.029-.005-.002-.005 3.914-21.176 3.915 21.176c1.316-3.279 2.776-6.512 5.277-9.387 2.269-2.96 5.58-5.559 5.252-9.398 1.563 4.26-.512 7.282-1.546 10.659-1.266 3.295-1.49 6.95-1.57 10.65l-.008-.003.006.003h.002l16.021-14.39-9.819 19.166-.006.006.032.034-.026-.04a67.761 67.761 0 0 1 2.334-1.323c3.796-5.357 7.063-12.008 8.636-20.039a2.289 2.289 0 0 1-.505-.218l-7.07-4.275c-.595-.36-.997-.965-1.132-1.705l-.033-.391 1.591.6.294.302 7.07 4.276.056.022c.193-1.16.341-2.358.461-3.577l-5.874-3.551a.986.986 0 0 0-.509-.134l-.344.055-1.64-.62c.562-.519 1.266-.832 1.987-.832.444 0 .858.113 1.228.335l5.28 3.195c.089-1.272.151-2.563.151-3.894V32.79a64.252 64.252 0 0 0-3.294-1.65Zm-21.218 3.931.37.03 8.156 1.318c.687.112 1.287.523 1.689 1.158.253.403.397.865.449 1.352l-1.645-.622c-.177-.27-.421-.462-.717-.51l-8.155-1.32c-.256-.041-.52.04-.756.204h-1.788c.49-.962 1.403-1.61 2.397-1.61Zm-20.477 2.506c.402-.635 1-1.046 1.687-1.158l8.157-1.317.37-.03c.997 0 1.908.646 2.397 1.609h-1.782c-.238-.164-.5-.245-.761-.203l-8.157 1.319c-.292.047-.54.24-.715.51l-1.646.622a3.15 3.15 0 0 1 .45-1.352ZM8.07 43.978l-.248.052c-.34 0-.48-.304-.67-.804-.226-.602-.326-.979.19-1.175l9.552-3.61.248-.052c.34 0 .48.303.669.804.214.567.324.982-.19 1.174l-9.55 3.611Zm17.685-2.859L17.6 42.44l-.37.03c-.694 0-1.343-.319-1.842-.834l1.587-.602.261.04.14-.011 8.156-1.32a.964.964 0 0 0 .438-.213h1.693c-.353.83-1.038 1.45-1.907 1.59Zm-.577-1.985c-.55 0-.594-.426-.594-1.03 0-.603.044-1.03.594-1.03h10.209c.553 0 .594.39.594 1.03 0 .604-.043 1.03-.594 1.03h-10.21Zm17.788 3.304-8.155-1.319c-.688-.11-1.287-.521-1.689-1.156a3.129 3.129 0 0 1-.218-.434h1.667c.137.11.293.187.463.214l8.156 1.319.141.012.26-.041 1.576.596c-.592.606-1.389.942-2.201.809Zm10.257-.387c.517.196.415.573.188 1.177-.188.498-.327.802-.667.802l-.248-.052-9.552-3.61c-.513-.195-.403-.608-.189-1.175.19-.5.329-.804.668-.804l.249.052 9.551 3.61Z" clip-rule="evenodd"/><path fill="#fff" fill-rule="evenodd" d="M44.08 77.445a3.683 3.683 0 0 0-5.918.082c-.83 1.145-1.098 2.009-1.331 2.77-.208.662-.404 1.29-.955 2.052a1.205 1.205 0 1 1-1.953-1.416c.557-.76 1.092-1.141 1.66-1.541.65-.463 1.389-.983 2.216-2.126.58-.8.816-1.776.663-2.75a3.674 3.674 0 0 0-1.483-2.412l-.301-.197a3.73 3.73 0 0 0-.661-.307 17.168 17.168 0 0 0-5.603-.94 17.09 17.09 0 0 0-5.595.94 3.676 3.676 0 0 0-2.447 2.913 3.666 3.666 0 0 0 .657 2.753c.831 1.143 1.57 1.663 2.221 2.126.567.4 1.105.779 1.658 1.541.391.54.272 1.296-.27 1.684a1.222 1.222 0 0 1-1.682-.268c-.552-.763-.749-1.392-.954-2.053-.236-.762-.503-1.624-1.332-2.769a3.697 3.697 0 0 0-5.163-.82 3.53 3.53 0 0 0-.756.74l-.026.033c.173.174.346.349.517.517l.079-.114a2.973 2.973 0 0 1 4.766.067c.76 1.046.997 1.816 1.229 2.557.213.693.433 1.407 1.058 2.266.158.217.352.394.582.53a1.92 1.92 0 0 0 1.716.1 5.71 5.71 0 0 1 .723-.519 1.93 1.93 0 0 0 .095-2.374c-.623-.856-1.237-1.29-1.823-1.707-.638-.448-1.293-.912-2.053-1.96a2.956 2.956 0 0 1-.535-2.216 2.977 2.977 0 0 1 1.974-2.348 16.418 16.418 0 0 1 10.727.003 2.953 2.953 0 0 1 1.969 2.345 2.965 2.965 0 0 1-.53 2.218c-.76 1.046-1.416 1.51-2.053 1.958-.59.419-1.202.85-1.823 1.706a1.928 1.928 0 0 0 .095 2.38c.252.153.487.329.71.518a1.913 1.913 0 0 0 2.308-.634c.625-.86.846-1.573 1.06-2.266.23-.741.468-1.511 1.226-2.557a2.962 2.962 0 0 1 4.16-.66c.225.164.433.364.607.592l.08.115c.172-.168.342-.343.516-.517l-.026-.035" clip-rule="evenodd"/><path fill="#fff" fill-rule="evenodd" d="M21.594 80.564c.403.53.802 1.354.802 1.354-.138-.369-.238-.707-.329-1.011v-.003.003c-.18-.88-.521-1.727-1.099-2.468a1.853 1.853 0 0 0-1.3-.593 1.894 1.894 0 0 0-1.372.528l-.287.359c.642.61 1.278 1.194 1.903 1.74.151-1.15 1.291-.421 1.682.091M42.516 78.353a1.914 1.914 0 0 0-1.371-.52 1.858 1.858 0 0 0-1.301.598c-.57.737-.914 1.589-1.091 2.465l.006-.015-.003.014c-.093.309-.193.647-.328 1.014 0 0 .397-.826.799-1.356.393-.516 1.545-1.253 1.686-.074a60.276 60.276 0 0 0 1.907-1.741 1.726 1.726 0 0 0-.304-.385M26.935 84.339c.45-.45 1.179-.45 1.63 0 .45.45.45 1.18 0 1.628a1.145 1.145 0 0 1-.806.338c.667.413 1.22.733 1.654.976.194-.36.562-.616 1.002-.616.44 0 .808.255 1.003.616a45.93 45.93 0 0 0 1.653-.976 1.154 1.154 0 1 1 .828-1.966c.35.353.418.876.213 1.303.32-.207.655-.43 1.003-.67a5.51 5.51 0 0 0-1.92-1.907 5.506 5.506 0 0 0-2.779-.751 5.466 5.466 0 0 0-3.894 1.614 5.644 5.644 0 0 0-.804 1.049c.348.236.68.458.997.665-.2-.429-.134-.95.22-1.303m3.48-1.443c.638 0 1.154.518 1.155 1.155a1.155 1.155 0 0 1-2.31-.002 1.157 1.157 0 0 1 1.155-1.153" clip-rule="evenodd"/><path fill="#fff" fill-rule="evenodd" d="M33.63 82.327a6.374 6.374 0 0 0-7.715.993 6.401 6.401 0 0 0-.91 1.16l.472.327a5.777 5.777 0 0 1 7.862-1.986 5.799 5.799 0 0 1 2.016 1.986c.152-.105.306-.212.462-.323a6.354 6.354 0 0 0-2.187-2.157" clip-rule="evenodd"/><path fill="#fff" fill-rule="evenodd" d="M59.926 16.907V39.7c0 33.672-29.51 48.119-29.51 48.119S.904 73.372.904 39.699V16.908h59.022Zm.906-.907H0v23.7c0 7.81 1.578 15.247 4.691 22.098 2.49 5.48 5.959 10.597 10.31 15.21 7.406 7.85 14.707 11.476 15.016 11.624l.399.196.397-.196c.308-.148 7.61-3.774 15.016-11.624 4.353-4.613 7.82-9.73 10.31-15.21 3.114-6.851 4.693-14.288 4.693-22.099V16Z" clip-rule="evenodd"/></svg>